<?xml version="1.0" encoding="UTF-8" standalone="no"?>
<!-- Generator: Adobe Illustrator 24.1.0, SVG Export Plug-In . SVG Version: 6.00 Build 0)  -->

<svg
   version="1.1"
   x="0px"
   y="0px"
   viewBox="0 0 758.25395 175.57"
   xml:space="preserve"
   id="svg37"
   sodipodi:docname="nfts2me.svg"
   width="758.25397"
   height="175.57001"
   inkscape:version="1.1.2 (0a00cf5339, 2022-02-04)"
   xmlns:inkscape="http://www.inkscape.org/namespaces/inkscape"
   xmlns:sodipodi="http://sodipodi.sourceforge.net/DTD/sodipodi-0.dtd"
   xmlns="http://www.w3.org/2000/svg"
   xmlns:svg="http://www.w3.org/2000/svg"><defs
   id="defs41" /><sodipodi:namedview
   id="namedview39"
   pagecolor="#ffffff"
   bordercolor="#666666"
   borderopacity="1.0"
   inkscape:pageshadow="2"
   inkscape:pageopacity="0.0"
   inkscape:pagecheckerboard="0"
   showgrid="false"
   inkscape:zoom="1.4178201"
   inkscape:cx="387.91945"
   inkscape:cy="101.91702"
   inkscape:window-width="1846"
   inkscape:window-height="1016"
   inkscape:window-x="74"
   inkscape:window-y="27"
   inkscape:window-maximized="1"
   inkscape:current-layer="svg37" />
<style
   type="text/css"
   id="style2">
	.st0{fill:#6CB7E6;}
	.st1{fill:#147ABF;}
</style>
<g
   id="Capa_1"
   transform="translate(-33.096037,-196.4)">
</g>
<g
   id="Capa_2"
   transform="translate(-33.096037,-196.4)">
	<g
   id="g9">
		<circle
   class="st0"
   cx="105.05"
   cy="204.58"
   r="8.1800003"
   id="circle5" />
		<path
   class="st0"
   d="M 80.05,327.28 54.21,312.9 V 253.94 L 86.54,236.99 V 356.55 L 36.4,325.86 c 0,0 -3.28,-1.71 -3.28,-6.2 0,-4.49 0,-71.78 0,-71.78 0,0 -0.57,-4.27 3.85,-6.76 4.42,-2.49 60.67,-35.39 60.67,-35.39 l 2.07,5.04 c 0,0 -53.67,31.08 -57.95,33.85 -1.78,1.15 -3.15,2.11 -3.15,4.98 0,2.98 -0.01,54.64 -0.01,67.42 0,2.51 0.22,3.4 2.27,5.19 1.9,1.64 39.16,24.28 39.16,24.28 z"
   id="path7" />
	</g>
	<g
   id="g15">
		<circle
   class="st0"
   cx="103.73"
   cy="363.79001"
   r="8.1800003"
   id="circle11" />
		<path
   class="st0"
   d="m 128.72,241.09 25.85,14.38 v 58.96 l -32.33,16.95 V 211.82 l 50.13,30.69 c 0,0 3.28,1.71 3.28,6.2 0,4.49 0,71.78 0,71.78 0,0 0.57,4.27 -3.85,6.76 -4.41,2.49 -60.67,35.39 -60.67,35.39 l -2.07,-5.04 c 0,0 53.67,-31.08 57.95,-33.85 1.78,-1.15 3.15,-2.11 3.15,-4.98 0,-2.98 0.01,-54.64 0.01,-67.42 0,-2.51 -0.22,-3.4 -2.27,-5.19 -1.9,-1.64 -39.16,-24.28 -39.16,-24.28 z"
   id="path13" />
	</g>
</g>
<g
   id="Capa_3"
   transform="translate(-33.096037,-196.4)">
	<polygon
   class="st1"
   points="122.24,331.38 86.53,291.04 86.53,236.99 122.24,277.39 "
   id="polygon18" />
	<path
   d="m 245.4,323.68 -49.25,-81.29 h 28.61 l 49.44,81.29 z m -49.26,0 V 250.1 l 23.59,38.66 v 34.92 z m 78.05,-7.72 -23.59,-38.84 v -34.74 h 23.59 z"
   id="path20" />
	<path
   d="m 287.36,323.68 v -81.29 h 27.08 v 36.33 h 25 v 15.99 h -25 v 28.98 h -27.08 z m 45.58,-54.34 v -10.72 h -14.21 v -16.23 h 41.29 v 26.96 h -27.08 z"
   id="path22" />
	<path
   d="m 370.37,260.09 v -17.7 h 70.57 v 17.7 z m 21.2,63.59 v -59.36 h 28.18 v 59.36 z"
   id="path24" />
	<path
   d="m 450.81,323.68 -11.27,-13.42 v -5.21 h 27.14 v 6.68 h 12.01 v 11.95 z m 32.16,0 V 299.11 H 453.69 L 439.6,285.57 V 273.2 l 14.64,-14.58 h 10.84 v 22.97 h 30.88 l 14.09,14.21 v 12.68 l -15.13,15.19 h -11.95 z m 0,-48.03 v -5.08 h -13.6 v -11.95 h 28.79 l 9.68,9.68 v 7.35 z"
   id="path26" />
	<path
   d="m 520.28,323.68 v -29.16 l 17.34,-16.3 h 32.04 v -35.84 h 10.84 l 16.23,16.23 v 20.09 l -16.23,16.23 h -33.14 v 28.73 h -27.08 z m 0,-54.83 v -10.23 l 16.3,-16.23 h 28.79 v 14.64 h -18.01 v 11.82 z m 31.36,54.83 v -14.64 h 45.09 v 14.64 z"
   id="path28" />
	<polygon
   class="st0"
   points="596.73,258.62 596.73,278.71 580.5,294.95 547.35,294.95 547.35,323.68 520.28,323.68 520.28,294.52 537.61,278.22 569.65,278.22 569.65,242.38 580.5,242.38 "
   id="polygon30" />
	<path
   d="m 609.66,323.68 v -73.76 l 25.3,42.45 v 31.3 h -25.3 z m 48.27,0 -48.21,-81.29 h 28.79 l 21.81,36.14 17.15,-29.41 v 40.92 z m 23.52,0 v -81.29 h 27.08 v 81.29 z"
   id="path32" />
	<path
   d="m 737.02,323.68 -16.23,-16.23 v -32.59 l 16.23,-16.23 h 10.84 v 65.06 h -10.84 z m 15.13,-26.1 v -11.33 h 14.27 v -11.39 h -14.27 v -16.23 h 22.97 l 16.23,16.23 v 22.73 h -39.2 z m 0,26.1 v -15.19 h 36.39 v 7.05 l -8.09,8.15 h -28.3 z"
   id="path34" />
</g>
</svg>
