<svg
   version="1.1"
   x="0px"
   y="0px"
   viewBox="0 0 142.57792 175.57"
   xml:space="preserve"
   width="142.57793"
   height="175.57001"
   xmlns="http://www.w3.org/2000/svg"
   xmlns:svg="http://www.w3.org/2000/svg">
<style
   type="text/css"
   id="style2">
	.st0{fill:#6CB7E6;}
	.st1{fill:#147ABF;}
</style>
<g
   id="Capa_2"
   transform="translate(-33.096037,-196.4)">
	<g
   id="g9">
		<circle
   class="st0"
   cx="105.05"
   cy="204.58"
   r="8.1800003"
   id="circle5" />
		<path
   class="st0"
   d="M 80.05,327.28 54.21,312.9 V 253.94 L 86.54,236.99 V 356.55 L 36.4,325.86 c 0,0 -3.28,-1.71 -3.28,-6.2 0,-4.49 0,-71.78 0,-71.78 0,0 -0.57,-4.27 3.85,-6.76 4.42,-2.49 60.67,-35.39 60.67,-35.39 l 2.07,5.04 c 0,0 -53.67,31.08 -57.95,33.85 -1.78,1.15 -3.15,2.11 -3.15,4.98 0,2.98 -0.01,54.64 -0.01,67.42 0,2.51 0.22,3.4 2.27,5.19 1.9,1.64 39.16,24.28 39.16,24.28 z"
   id="path7" />
	</g>
	<g
   id="g15">
		<circle
   class="st0"
   cx="103.73"
   cy="363.79001"
   r="8.1800003"
   id="circle11" />
		<path
   class="st0"
   d="m 128.72,241.09 25.85,14.38 v 58.96 l -32.33,16.95 V 211.82 l 50.13,30.69 c 0,0 3.28,1.71 3.28,6.2 0,4.49 0,71.78 0,71.78 0,0 0.57,4.27 -3.85,6.76 -4.41,2.49 -60.67,35.39 -60.67,35.39 l -2.07,-5.04 c 0,0 53.67,-31.08 57.95,-33.85 1.78,-1.15 3.15,-2.11 3.15,-4.98 0,-2.98 0.01,-54.64 0.01,-67.42 0,-2.51 -0.22,-3.4 -2.27,-5.19 -1.9,-1.64 -39.16,-24.28 -39.16,-24.28 z"
   id="path13" />
	</g>
</g>
<g
   id="Capa_3"
   transform="translate(-353.92933,-201.50953)">
	<polygon
   class="st1"
   points="86.53,291.04 86.53,236.99 122.24,277.39 122.24,331.38 "
   id="polygon18"
   transform="translate(320.83329,5.1095282)" />
</g>
</svg>
